DBRep_DrawableShape

CASCADE Topology V1, (c) Matra-Datavision
Locations 1
1
              1               0               0               0 
              0               1               0               0 
              0               0               1               0 
Curve2ds 6
1 0 70 1 0 
2 0 0 1 0 -0 1 71.5
1 6.2831853071795862 -0 0 1 
1 0 -0 0 1 
1 0 0 1 0 
2 0 0 1 0 -0 1 71.5
Curves 3
2 0 0 70 0 0 1 1 0 -0 -0 1 0 71.5
1 71.5 -1.7512449227807151e-14 0 0 0 1 
2 0 0 0 0 0 1 1 0 -0 -0 1 0 71.5
Polygon3D 0
PolygonOnTriangulations 0
Surfaces 3
2 0 0 0 0 0 1 1 0 -0 -0 1 0 71.5
1 0 0 70 0 0 1 1 0 -0 -0 1 0 
1 0 0 0 0 0 1 1 0 -0 -0 1 0 
Triangulations 0

TShapes 14
Ve
1e-07
71.5 -1.75124492278072e-14 70
0 0

0101101
*
Ed
 1e-07 1 1 0
1  1 0 0 6.28318530717959
2  1 1 0 0 6.28318530717959
2  2 2 0 0 6.28318530717959
0

0101000
+14 0 -14 0 *
Ve
1e-07
71.5 -1.75124492278072e-14 0
0 0

0101101
*
Ed
 1e-07 1 1 0
1  2 0 0 70
3  3 4CN 1 0 0 70
0

0101000
-14 0 +12 0 *
Ed
 1e-07 1 1 0
1  3 0 0 6.28318530717959
2  5 1 0 0 6.28318530717959
2  6 3 0 0 6.28318530717959
0

0101000
+12 0 -12 0 *
Wi

0101100
-13 0 +11 0 +10 0 -11 0 *
Fa
0  1e-07 1 0

0111000
+9 0 *
Wi

0101100
+13 0 *
Fa
0  1e-07 2 0

0111000
+7 0 *
Wi

0101100
-10 0 *
Fa
0  1e-07 3 0

0111000
-5 0 *
Sh

0101100
+8 0 +6 0 -4 0 *
So

0100000
+3 0 *
Co

1100000
+2 1 *

+1 0 