DBRep_DrawableShape

CASCADE Topology V1, (c) Matra-Datavision
Locations 3
1
              1               0               0            1850 
              0               1               0            2600 
              0               0               1          1340.5 
1
              1               0               0            1850 
              0               1               0            2600 
              0               0               1          1340.5 
2  2 -1 0
Curve2ds 12
1 0 19 1 0 
2 0 0 1 0 -0 1 107
1 6.2831853071795862 0 0 1 
1 0 0 0 1 
1 0 0 1 0 
2 0 0 1 0 -0 1 107
2 0 0 1 0 -0 1 46
1 0 19 1 0 
2 0 0 1 0 -0 1 46
1 0 0 1 0 
1 6.2831853071795862 0 0 1 
1 0 0 0 1 
Curves 6
2 0 0 19 0 0 1 1 0 -0 -0 1 0 107
1 107 -2.6207441501749999e-14 0 0 0 1 
2 0 0 0 0 0 1 1 0 -0 -0 1 0 107
2 0 0 19 0 0 1 1 0 -0 -0 1 0 46
2 0 0 0 0 0 1 1 0 -0 -0 1 0 46
1 46 -1.1266750552160001e-14 0 0 0 1 
Polygon3D 0
PolygonOnTriangulations 0
Surfaces 4
2 0 0 0 0 0 1 1 0 -0 -0 1 0 107
1 0 0 19 0 0 1 1 0 -0 -0 1 0 
1 0 0 0 0 0 1 1 0 -0 -0 1 0 
2 0 0 0 0 0 1 1 0 -0 -0 1 0 46
Triangulations 0

TShapes 23
Ve
1e-07
1957 2600 1359.5
0 0

0101101
*
Ed
 1e-07 1 1 0
1  1 0 0 6.28318530717959
2  1 1 0 0 6.28318530717959
2  2 2 0 0 6.28318530717959
0

0101100
+23 3 -23 3 *
Ve
1e-07
1957 2600 1340.5
0 0

0101101
*
Ed
 1e-07 1 1 0
1  2 0 0 19
3  3 4CN 1 0 0 19
0

0101000
+21 3 -23 3 *
Ed
 1e-07 1 1 0
1  3 0 0 6.28318530717959
2  5 1 0 0 6.28318530717959
2  6 3 0 0 6.28318530717959
0

0101100
+21 3 -21 3 *
Wi

0101100
-22 0 -20 0 +19 0 +20 0 *
Fa
0  1e-07 1 0

0111000
+18 0 *
Wi

0101100
+22 0 *
Ve
1e-07
1896 2600 1359.5
0 0

0101101
*
Ed
 1e-07 1 1 0
1  4 0 0 6.28318530717959
2  7 2 0 0 6.28318530717959
2  8 4 0 0 6.28318530717959
0

0101100
+15 3 -15 3 *
Wi

0101100
-14 0 *
Fa
0  1e-07 2 0

0111000
+16 0 +13 0 *
Wi

0101100
+19 0 *
Ve
1e-07
1896 2600 1340.5
0 0

0101101
*
Ed
 1e-07 1 1 0
1  5 0 0 6.28318530717959
2  9 3 0 0 6.28318530717959
2  10 4 0 0 6.28318530717959
0

0101100
+10 3 -10 3 *
Wi

0101100
-9 0 *
Fa
0  1e-07 3 0

0111000
+11 0 +8 0 *
Ed
 1e-07 1 1 0
1  6 0 0 19
3  11 12CN 4 0 0 19
0

0101000
+10 3 -15 3 *
Wi

0101100
-14 0 -6 0 +9 0 +6 0 *
Fa
0  1e-07 4 0

0111000
+5 0 *
Sh

0101100
+17 0 +12 0 -7 0 -4 0 *
So

0100000
+3 0 *
Co

1100000
+2 1 *

+1 0 