DBRep_DrawableShape

CASCADE Topology V1, (c) Matra-Datavision
Locations 6
1
              1               0               0               0 
              0               1               0               0 
              0               0               1               0 
1
              1               0               0            1850 
              0               1               0            2600 
              0               0               1          1340.5 
2  2 1 1 1 0
1
              1               0               0            1850 
              0               1               0            2600 
              0               0               1          1340.5 
2  4 1 1 -1 2 -1 0
2  1 -1 2 -1 0
Curve2ds 16
1 6.2831853071795862 0 0 1 
1 0 0 0 1 
8 0 19
1 6.2831853071795862 0 0 1 
8 0 19
1 0 0 0 1 
1 0 0 1 0 
8 0 6.2831853071795862
1 0 0 1 0 
1 0 19 1 0 
8 0 6.2831853071795862
1 0 19 1 0 
1 0 19 1 0 
8 0 6.2831853071795862
1 0 19 1 0 
1 0 0 1 0 
8 0 6.2831853071795862
1 0 0 1 0 
1 6.2831853071795862 0 0 1 
1 0 0 0 1 
8 0 19
1 6.2831853071795862 0 0 1 
8 0 19
1 0 0 0 1 
Curves 18
1 0 0 0 0 0 1 
1 0 0 0 -0 1 0 
1 0 5200 0 0 0 1 
1 0 0 2700 -0 1 0 
1 0 0 0 1 0 -0 
1 0 0 2700 1 0 -0 
1 3700 0 0 0 0 1 
1 3700 0 0 -0 1 0 
1 0 5200 0 1 0 -0 
1 0 5200 2700 1 0 -0 
1 3700 5200 0 0 0 1 
1 3700 0 2700 -0 1 0 
1 107 -2.6207441501749999e-14 0 0 0 1 
2 0 0 0 0 0 1 1 0 -0 -0 1 0 107
2 0 0 19 0 0 1 1 0 -0 -0 1 0 107
2 0 0 19 0 0 1 1 0 -0 -0 1 0 46
2 0 0 0 0 0 1 1 0 -0 -0 1 0 46
1 46 -1.1266750552160001e-14 0 0 0 1 
Polygon3D 0
PolygonOnTriangulations 0
Surfaces 12
1 0 0 0 1 0 -0 0 0 1 0 -1 0 
1 0 0 0 -0 1 0 0 0 1 1 0 -0 
1 0 0 0 0 0 1 1 0 -0 -0 1 0 
1 0 5200 0 -0 1 0 0 0 1 1 0 -0 
1 0 0 2700 0 0 1 1 0 -0 -0 1 0 
1 3700 0 0 1 0 -0 0 0 1 0 -1 0 
2 0 0 0 0 0 1 1 0 -0 -0 1 0 107
2 0 0 0 0 0 1 1 0 -0 -0 1 0 107
1 0 0 0 0 0 1 1 0 -0 -0 1 0 
1 0 0 19 0 0 1 1 0 -0 -0 1 0 
2 0 0 0 0 0 1 1 0 -0 -0 1 0 46
2 0 0 0 0 0 1 1 0 -0 -0 1 0 46
Triangulations 0

TShapes 56
Ve
1e-07
0 0 0
0 0

0101101
*
Ve
1e-07
0 0 2700
0 0

0101101
*
Ed
 1e-07 1 1 0
1  1 0 0 2700
4 C0 1 0 2 0
0

0101000
+56 0 -55 0 *
Ve
1e-07
0 5200 0
0 0

0101101
*
Ed
 1e-07 1 1 0
1  2 0 0 5200
4 C0 1 0 3 0
0

0101000
+56 0 -53 0 *
Ve
1e-07
0 5200 2700
0 0

0101101
*
Ed
 1e-07 1 1 0
1  3 0 0 2700
4 C0 1 0 4 0
0

0101000
+53 0 -51 0 *
Ed
 1e-07 1 1 0
1  4 0 0 5200
4 C0 1 0 5 0
0

0101000
+55 0 -51 0 *
Wi

0101100
-54 0 +52 0 +50 0 -49 0 *
Fa
0  1e-07 1 0

0111000
+48 0 *
Ve
1e-07
3700 0 0
0 0

0101101
*
Ed
 1e-07 1 1 0
1  5 0 0 3700
4 C0 2 0 3 0
0

0101000
+56 0 -46 0 *
Ve
1e-07
3700 0 2700
0 0

0101101
*
Ed
 1e-07 1 1 0
1  6 0 0 3700
4 C0 2 0 5 0
0

0101000
+55 0 -44 0 *
Ed
 1e-07 1 1 0
1  7 0 0 2700
4 C0 6 0 2 0
0

0101000
+46 0 -44 0 *
Wi

0101100
-45 0 +54 0 +43 0 -42 0 *
Fa
0  1e-07 2 0

0111000
+41 0 *
Ve
1e-07
3700 5200 0
0 0

0101101
*
Ed
 1e-07 1 1 0
1  8 0 0 5200
4 C0 6 0 3 0
0

0101000
+46 0 -39 0 *
Ed
 1e-07 1 1 0
1  9 0 0 3700
4 C0 4 0 3 0
0

0101000
+53 0 -39 0 *
Wi

0101100
-52 0 +45 0 +38 0 -37 0 *
Fa
0  1e-07 3 0

0111000
+36 0 *
Ve
1e-07
3700 5200 2700
0 0

0101101
*
Ed
 1e-07 1 1 0
1  10 0 0 3700
4 C0 4 0 5 0
0

0101000
+51 0 -34 0 *
Ed
 1e-07 1 1 0
1  11 0 0 2700
4 C0 6 0 4 0
0

0101000
+39 0 -34 0 *
Wi

0101100
-37 0 +50 0 +33 0 -32 0 *
Fa
0  1e-07 4 0

0111000
+31 0 *
Ed
 1e-07 1 1 0
1  12 0 0 5200
4 C0 6 0 5 0
0

0101000
+44 0 -34 0 *
Wi

0101100
-49 0 +43 0 +29 0 -33 0 *
Fa
0  1e-07 5 0

0111000
+28 0 *
Wi

0101100
-42 0 +38 0 +32 0 -29 0 *
Fa
0  1e-07 6 0

0111000
+26 0 *
Sh

0101100
-47 1 -40 1 -35 1 +30 1 +27 1 +25 1 *
Ve
1e-07
1957 2600 1340.5
0 0

0101101
*
Ve
1e-07
1957 2600 1359.5
0 0

0101101
*
Ed
 1e-07 1 1 0
1  13 0 0 19
3  1 2CN 7 0 0 19
3  3 4C0 8 5 0 19
0

0101000
+23 6 -22 6 *
Ed
 1e-07 1 1 0
1  14 0 0 6.28318530717959
2  5 7 0 0 6.28318530717959
4 C0 7 0 9 0
2  6 8 5 0 6.28318530717959
0

0101000
+23 6 -23 6 *
Ed
 1e-07 1 1 0
1  15 0 0 6.28318530717959
2  7 7 0 0 6.28318530717959
4 C0 7 0 10 0
2  8 8 5 0 6.28318530717959
0

0101000
+22 6 -22 6 *
Wi

0101100
+21 3 +20 3 -21 3 -19 3 *
Fa
0  1e-07 7 3

0101000
+18 0 *
Wi

0101100
+19 3 *
Ve
1e-07
1896 2600 1359.5
0 0

0101101
*
Ed
 1e-07 1 1 0
1  16 0 0 6.28318530717959
2  9 11 0 0 6.28318530717959
4 C0 10 0 11 0
2  10 12 5 0 6.28318530717959
0

0101000
+15 6 -15 6 *
Wi

0101100
-14 3 *
Fa
0  1e-07 10 3

0101000
+16 0 +13 0 *
Wi

0101100
+20 3 *
Ve
1e-07
1896 2600 1340.5
0 0

0101101
*
Ed
 1e-07 1 1 0
1  17 0 0 6.28318530717959
2  11 11 0 0 6.28318530717959
4 C0 9 0 11 0
2  12 12 5 0 6.28318530717959
0

0101000
+10 6 -10 6 *
Wi

0101100
-9 3 *
Fa
0  1e-07 9 3

0101000
+11 0 +8 0 *
Ed
 1e-07 1 1 0
1  18 0 0 19
3  13 14CN 11 0 0 19
3  15 16C0 12 5 0 19
0

0101000
+10 6 -15 6 *
Wi

0101100
+6 3 +9 3 -6 3 -14 3 *
Fa
0  1e-07 11 3

0101000
+5 0 *
Sh

0101100
-17 0 -12 0 +7 0 +4 0 *
So

0100000
+24 0 +3 0 *
Co

1100000
+2 0 *

+1 0 