DBRep_DrawableShape

CASCADE Topology V1, (c) Matra-Datavision
Locations 4
1
              1               0               0            1850 
              0               1               0            2600 
              0               0               1          1340.5 
1
              1               0               0            1850 
              0               1               0            2600 
              0               0               1          1340.5 
2  2 -1 0
1
              1               0               0               0 
              0               1               0               0 
              0               0               1               0 
Curve2ds 20
1 0 19 1 0 
2 0 0 1 0 -0 1 107
1 6.2831853071795862 0 0 1 
1 0 0 0 1 
1 0 0 1 0 
2 0 0 1 0 -0 1 107
2 0 0 1 0 -0 1 46
1 0 19 1 0 
2 0 0 1 0 -0 1 46
1 0 0 1 0 
1 6.2831853071795862 0 0 1 
1 0 0 0 1 
1 0 19 1 0 
1 6.2831853071795862 0 0 1 
1 0 0 0 1 
1 0 0 1 0 
1 0 19 1 0 
1 0 0 1 0 
1 6.2831853071795862 0 0 1 
1 0 0 0 1 
Curves 24
2 0 0 19 0 0 1 1 0 -0 -0 1 0 107
1 107 -2.6207441501749999e-14 0 0 0 1 
2 0 0 0 0 0 1 1 0 -0 -0 1 0 107
2 0 0 19 0 0 1 1 0 -0 -0 1 0 46
2 0 0 0 0 0 1 1 0 -0 -0 1 0 46
1 46 -1.1266750552160001e-14 0 0 0 1 
1 0 0 0 0 0 1 
1 0 0 0 -0 1 0 
1 0 5200 0 0 0 1 
1 0 0 2700 -0 1 0 
1 0 0 0 1 0 -0 
1 0 0 2700 1 0 -0 
1 3700 0 0 0 0 1 
1 3700 0 0 -0 1 0 
1 0 5200 0 1 0 -0 
1 0 5200 2700 1 0 -0 
1 3700 5200 0 0 0 1 
1 3700 0 2700 -0 1 0 
2 0 0 19 0 0 1 1 0 -0 -0 1 0 107
1 107 -2.6207441501749999e-14 0 0 0 1 
2 0 0 0 0 0 1 1 0 -0 -0 1 0 107
2 0 0 19 0 0 1 1 0 -0 -0 1 0 46
2 0 0 0 0 0 1 1 0 -0 -0 1 0 46
1 46 -1.1266750552160001e-14 0 0 0 1 
Polygon3D 0
PolygonOnTriangulations 0
Surfaces 14
2 0 0 0 0 0 1 1 0 -0 -0 1 0 107
1 0 0 19 0 0 1 1 0 -0 -0 1 0 
1 0 0 0 0 0 1 1 0 -0 -0 1 0 
2 0 0 0 0 0 1 1 0 -0 -0 1 0 46
1 0 0 0 1 0 -0 0 0 1 0 -1 0 
1 0 0 0 -0 1 0 0 0 1 1 0 -0 
1 0 0 0 0 0 1 1 0 -0 -0 1 0 
1 0 5200 0 -0 1 0 0 0 1 1 0 -0 
1 0 0 2700 0 0 1 1 0 -0 -0 1 0 
1 3700 0 0 1 0 -0 0 0 1 0 -1 0 
2 0 0 0 0 0 1 1 0 -0 -0 1 0 107
1 0 0 19 0 0 1 1 0 -0 -0 1 0 
1 0 0 0 0 0 1 1 0 -0 -0 1 0 
2 0 0 0 0 0 1 1 0 -0 -0 1 0 46
Triangulations 0

TShapes 79
Ve
1e-07
1957 2600 1359.5
0 0

0101101
*
Ed
 1e-07 1 1 0
1  1 0 0 6.28318530717959
2  1 1 0 0 6.28318530717959
2  2 2 0 0 6.28318530717959
0

0101100
+79 3 -79 3 *
Ve
1e-07
1957 2600 1340.5
0 0

0101101
*
Ed
 1e-07 1 1 0
1  2 0 0 19
3  3 4CN 1 0 0 19
0

0101000
+77 3 -79 3 *
Ed
 1e-07 1 1 0
1  3 0 0 6.28318530717959
2  5 1 0 0 6.28318530717959
2  6 3 0 0 6.28318530717959
0

0101100
+77 3 -77 3 *
Wi

0101100
-78 0 -76 0 +75 0 +76 0 *
Fa
0  1e-07 1 0

0111000
+74 0 *
Wi

0101100
+78 0 *
Ve
1e-07
1896 2600 1359.5
0 0

0101101
*
Ed
 1e-07 1 1 0
1  4 0 0 6.28318530717959
2  7 2 0 0 6.28318530717959
2  8 4 0 0 6.28318530717959
0

0101100
+71 3 -71 3 *
Wi

0101100
-70 0 *
Fa
0  1e-07 2 0

0111000
+72 0 +69 0 *
Wi

0101100
+75 0 *
Ve
1e-07
1896 2600 1340.5
0 0

0101101
*
Ed
 1e-07 1 1 0
1  5 0 0 6.28318530717959
2  9 3 0 0 6.28318530717959
2  10 4 0 0 6.28318530717959
0

0101100
+66 3 -66 3 *
Wi

0101100
-65 0 *
Fa
0  1e-07 3 0

0111000
+67 0 +64 0 *
Ed
 1e-07 1 1 0
1  6 0 0 19
3  11 12CN 4 0 0 19
0

0101000
+66 3 -71 3 *
Wi

0101100
-70 0 -62 0 +65 0 +62 0 *
Fa
0  1e-07 4 0

0111000
+61 0 *
Sh

0101100
+73 0 +68 0 -63 0 -60 0 *
So

0100000
+59 0 *
Ve
1e-07
0 0 0
0 0

0101101
*
Ve
1e-07
0 0 2700
0 0

0101101
*
Ed
 1e-07 1 1 0
1  7 0 0 2700
4 C0 5 0 6 0
0

0101000
+57 0 -56 0 *
Ve
1e-07
0 5200 0
0 0

0101101
*
Ed
 1e-07 1 1 0
1  8 0 0 5200
4 C0 5 0 7 0
0

0101000
+57 0 -54 0 *
Ve
1e-07
0 5200 2700
0 0

0101101
*
Ed
 1e-07 1 1 0
1  9 0 0 2700
4 C0 5 0 8 0
0

0101000
+54 0 -52 0 *
Ed
 1e-07 1 1 0
1  10 0 0 5200
4 C0 5 0 9 0
0

0101000
+56 0 -52 0 *
Wi

0101100
-55 0 +53 0 +51 0 -50 0 *
Fa
0  1e-07 5 0

0111000
+49 0 *
Ve
1e-07
3700 0 0
0 0

0101101
*
Ed
 1e-07 1 1 0
1  11 0 0 3700
4 C0 6 0 7 0
0

0101000
+57 0 -47 0 *
Ve
1e-07
3700 0 2700
0 0

0101101
*
Ed
 1e-07 1 1 0
1  12 0 0 3700
4 C0 6 0 9 0
0

0101000
+56 0 -45 0 *
Ed
 1e-07 1 1 0
1  13 0 0 2700
4 C0 10 0 6 0
0

0101000
+47 0 -45 0 *
Wi

0101100
-46 0 +55 0 +44 0 -43 0 *
Fa
0  1e-07 6 0

0111000
+42 0 *
Ve
1e-07
3700 5200 0
0 0

0101101
*
Ed
 1e-07 1 1 0
1  14 0 0 5200
4 C0 10 0 7 0
0

0101000
+47 0 -40 0 *
Ed
 1e-07 1 1 0
1  15 0 0 3700
4 C0 8 0 7 0
0

0101000
+54 0 -40 0 *
Wi

0101100
-53 0 +46 0 +39 0 -38 0 *
Fa
0  1e-07 7 0

0111000
+37 0 *
Ve
1e-07
3700 5200 2700
0 0

0101101
*
Ed
 1e-07 1 1 0
1  16 0 0 3700
4 C0 8 0 9 0
0

0101000
+52 0 -35 0 *
Ed
 1e-07 1 1 0
1  17 0 0 2700
4 C0 10 0 8 0
0

0101000
+40 0 -35 0 *
Wi

0101100
-38 0 +51 0 +34 0 -33 0 *
Fa
0  1e-07 8 0

0111000
+32 0 *
Ed
 1e-07 1 1 0
1  18 0 0 5200
4 C0 10 0 9 0
0

0101000
+45 0 -35 0 *
Wi

0101100
-50 0 +44 0 +30 0 -34 0 *
Fa
0  1e-07 9 0

0111000
+29 0 *
Wi

0101100
-43 0 +39 0 +33 0 -30 0 *
Fa
0  1e-07 10 0

0111000
+27 0 *
Sh

0101100
-48 0 -41 0 -36 0 +31 0 +28 0 +26 0 *
Ve
1e-07
107 -2.620744150175e-14 19
0 0

0101101
*
Ed
 1e-07 1 1 0
1  19 0 0 6.28318530717959
2  13 11 0 0 6.28318530717959
4 C0 11 0 12 0
0

0101100
+24 0 -24 0 *
Ve
1e-07
107 -2.620744150175e-14 0
0 0

0101101
*
Ed
 1e-07 1 1 0
1  20 0 0 19
3  14 15CN 11 0 0 19
0

0101000
+22 0 -24 0 *
Ed
 1e-07 1 1 0
1  21 0 0 6.28318530717959
2  16 11 0 0 6.28318530717959
4 C0 11 0 13 0
0

0101100
+22 0 -22 0 *
Wi

0101100
-23 0 -21 0 +20 0 +21 0 *
Fa
0  1e-07 11 0

0111000
+19 0 *
Wi

0101100
+23 0 *
Ve
1e-07
46 -1.126675055216e-14 19
0 0

0101101
*
Ed
 1e-07 1 1 0
1  22 0 0 6.28318530717959
2  17 14 0 0 6.28318530717959
4 C0 12 0 14 0
0

0101100
+16 0 -16 0 *
Wi

0101100
-15 0 *
Fa
0  1e-07 12 0

0111000
+17 0 +14 0 *
Wi

0101100
+20 0 *
Ve
1e-07
46 -1.126675055216e-14 0
0 0

0101101
*
Ed
 1e-07 1 1 0
1  23 0 0 6.28318530717959
2  18 14 0 0 6.28318530717959
4 C0 13 0 14 0
0

0101100
+11 0 -11 0 *
Wi

0101100
-10 0 *
Fa
0  1e-07 13 0

0111000
+12 0 +9 0 *
Ed
 1e-07 1 1 0
1  24 0 0 19
3  19 20CN 14 0 0 19
0

0101000
+11 0 -16 0 *
Wi

0101100
-15 0 -7 0 +10 0 +7 0 *
Fa
0  1e-07 14 0

0111000
+6 0 *
Sh

0101100
-18 2 -13 2 +8 2 +5 2 *
So

0100000
+25 0 +4 0 *
Co

0100000
+3 0 *
Co

1100000
+58 1 +2 4 *

+1 0 //+
Hide "*";
//+
Show {
  Point{1}; Point{2}; Point{3}; Point{4}; Curve{1}; Curve{2}; Curve{3}; Curve{4}; Curve{5}; Curve{6}; Surface{1}; Surface{2}; Surface{3}; Surface{4}; Volume{1}; 
}
