DBRep_DrawableShape

CASCADE Topology V3, (c) Open Cascade
Locations 2
1
              1               0               0               0 
              0               1               0               0 
              0               0               1               0 
1
              1               0               0            1850 
              0               1               0            2600 
              0               0               1          1340.5 
Curve2ds 8
1 0 19 1 0 
1 6.2831853071795862 0 0 1 
1 0 0 0 1 
1 0 0 1 0 
1 0 19 1 0 
1 0 0 1 0 
1 6.2831853071795862 0 0 1 
1 0 0 0 1 
Curves 18
1 0 0 0 0 0 1 
1 0 0 0 -0 1 0 
1 0 5200 0 0 0 1 
1 0 0 2700 -0 1 0 
1 0 0 0 1 0 -0 
1 0 0 2700 1 0 -0 
1 3700 0 0 0 0 1 
1 3700 0 0 -0 1 0 
1 0 5200 0 1 0 -0 
1 0 5200 2700 1 0 -0 
1 3700 5200 0 0 0 1 
1 3700 0 2700 -0 1 0 
2 0 0 19 0 0 1 1 0 -0 -0 1 0 107
1 107 -2.6207441501749999e-14 0 0 0 1 
2 0 0 0 0 0 1 1 0 -0 -0 1 0 107
2 0 0 19 0 0 1 1 0 -0 -0 1 0 46
2 0 0 0 0 0 1 1 0 -0 -0 1 0 46
1 46 -1.1266750552160001e-14 0 0 0 1 
Polygon3D 0
PolygonOnTriangulations 0
Surfaces 10
1 0 0 0 1 0 -0 0 0 1 0 -1 0 
1 0 0 0 -0 1 0 0 0 1 1 0 -0 
1 0 0 0 0 0 1 1 0 -0 -0 1 0 
1 0 5200 0 -0 1 0 0 0 1 1 0 -0 
1 0 0 2700 0 0 1 1 0 -0 -0 1 0 
1 3700 0 0 1 0 -0 0 0 1 0 -1 0 
2 0 0 0 0 0 1 1 0 -0 -0 1 0 107
1 0 0 19 0 0 1 1 0 -0 -0 1 0 
1 0 0 0 0 0 1 1 0 -0 -0 1 0 
2 0 0 0 0 0 1 1 0 -0 -0 1 0 46
Triangulations 0

TShapes 56
Ve
1e-07
0 0 0
0 0

0101101
*
Ve
1e-07
0 0 2700
0 0

0101101
*
Ed
 1e-07 1 1 0
1  1 0 0 2700
4 C0 1 0 2 0
0

0101000
+56 0 -55 0 *
Ve
1e-07
0 5200 0
0 0

0101101
*
Ed
 1e-07 1 1 0
1  2 0 0 5200
4 C0 1 0 3 0
0

0101000
+56 0 -53 0 *
Ve
1e-07
0 5200 2700
0 0

0101101
*
Ed
 1e-07 1 1 0
1  3 0 0 2700
4 C0 1 0 4 0
0

0101000
+53 0 -51 0 *
Ed
 1e-07 1 1 0
1  4 0 0 5200
4 C0 1 0 5 0
0

0101000
+55 0 -51 0 *
Wi

0101100
-54 0 +52 0 +50 0 -49 0 *
Fa
0  1e-07 1 0

0111000
+48 0 *
Ve
1e-07
3700 0 0
0 0

0101101
*
Ed
 1e-07 1 1 0
1  5 0 0 3700
4 C0 2 0 3 0
0

0101000
+56 0 -46 0 *
Ve
1e-07
3700 0 2700
0 0

0101101
*
Ed
 1e-07 1 1 0
1  6 0 0 3700
4 C0 2 0 5 0
0

0101000
+55 0 -44 0 *
Ed
 1e-07 1 1 0
1  7 0 0 2700
4 C0 6 0 2 0
0

0101000
+46 0 -44 0 *
Wi

0101100
-45 0 +54 0 +43 0 -42 0 *
Fa
0  1e-07 2 0

0111000
+41 0 *
Ve
1e-07
3700 5200 0
0 0

0101101
*
Ed
 1e-07 1 1 0
1  8 0 0 5200
4 C0 6 0 3 0
0

0101000
+46 0 -39 0 *
Ed
 1e-07 1 1 0
1  9 0 0 3700
4 C0 4 0 3 0
0

0101000
+53 0 -39 0 *
Wi

0101100
-52 0 +45 0 +38 0 -37 0 *
Fa
0  1e-07 3 0

0111000
+36 0 *
Ve
1e-07
3700 5200 2700
0 0

0101101
*
Ed
 1e-07 1 1 0
1  10 0 0 3700
4 C0 4 0 5 0
0

0101000
+51 0 -34 0 *
Ed
 1e-07 1 1 0
1  11 0 0 2700
4 C0 6 0 4 0
0

0101000
+39 0 -34 0 *
Wi

0101100
-37 0 +50 0 +33 0 -32 0 *
Fa
0  1e-07 4 0

0111000
+31 0 *
Ed
 1e-07 1 1 0
1  12 0 0 5200
4 C0 6 0 5 0
0

0101000
+44 0 -34 0 *
Wi

0101100
-49 0 +43 0 +29 0 -33 0 *
Fa
0  1e-07 5 0

0111000
+28 0 *
Wi

0101100
-42 0 +38 0 +32 0 -29 0 *
Fa
0  1e-07 6 0

0111000
+26 0 *
Sh

0101100
-47 0 -40 0 -35 0 +30 0 +27 0 +25 0 *
Ve
1e-07
107 -2.620744150175e-14 19
0 0

0101101
*
Ed
 1e-07 1 1 0
1  13 0 0 6.28318530717959
2  1 7 0 0 6.28318530717959
4 C0 7 0 8 0
0

0101100
+23 0 -23 0 *
Ve
1e-07
107 -2.620744150175e-14 0
0 0

0101101
*
Ed
 1e-07 1 1 0
1  14 0 0 19
3  2 3CN 7 0 0 19
0

0101000
+21 0 -23 0 *
Ed
 1e-07 1 1 0
1  15 0 0 6.28318530717959
2  4 7 0 0 6.28318530717959
4 C0 7 0 9 0
0

0101100
+21 0 -21 0 *
Wi

0101100
-22 0 -20 0 +19 0 +20 0 *
Fa
0  1e-07 7 0

0111000
+18 0 *
Wi

0101100
+22 0 *
Ve
1e-07
46 -1.126675055216e-14 19
0 0

0101101
*
Ed
 1e-07 1 1 0
1  16 0 0 6.28318530717959
2  5 10 0 0 6.28318530717959
4 C0 8 0 10 0
0

0101100
+15 0 -15 0 *
Wi

0101100
-14 0 *
Fa
0  1e-07 8 0

0111000
+16 0 +13 0 *
Wi

0101100
+19 0 *
Ve
1e-07
46 -1.126675055216e-14 0
0 0

0101101
*
Ed
 1e-07 1 1 0
1  17 0 0 6.28318530717959
2  6 10 0 0 6.28318530717959
4 C0 9 0 10 0
0

0101100
+10 0 -10 0 *
Wi

0101100
-9 0 *
Fa
0  1e-07 9 0

0111000
+11 0 +8 0 *
Ed
 1e-07 1 1 0
1  18 0 0 19
3  7 8CN 10 0 0 19
0

0101000
+10 0 -15 0 *
Wi

0101100
-14 0 -6 0 +9 0 +6 0 *
Fa
0  1e-07 10 0

0111000
+5 0 *
Sh

0101100
-17 2 -12 2 +7 2 +4 2 *
So

0100000
+24 0 +3 0 *
Co

1100000
+2 1 *

+1 0 //+
Surface Loop(3) = {8, 7, 9, 10};
//+
Volume(2) = {3};
//+
Surface Loop(3) = {8, 7, 9, 10};
//+
Volume(2) = {3};
//+
Volume(3) = {3};
//+
Volume(4) = {3};
//+
Volume(5) = {3};
//+
Surface Loop(3) = {8, 7, 9, 10};
//+
Volume(2) = {3};
//+
Physical Surface("magnet_top", 19) = {9};
//+
Surface Loop(3) = {8, 7, 9, 10};
//+
Volume(2) = {3};
//+
Field[1] = Constant;
//+
Field[1].SurfacesList = {7, 8, 9, 10};
//+
Background Field = 1;
//+
Field[1].IncludeBoundary = 1;
//+
Field[1].VolumesList = {1};
//+
Field[2] = AutomaticMeshSizeField;
//+
Delete Field [2];
//+
Delete Field [1];
//+
Field[1] = AutomaticMeshSizeField;
//+
Delete Field [1];
//+
Compound Surface {8, 7};
//+
Surface Loop(3) = {8, 7, 9, 10};
//+
Volume(2) = {3};
