DBRep_DrawableShape

CASCADE Topology V1, (c) Matra-Datavision
Locations 8
1
              1               0               0               0 
              0               1               0               0 
              0               0               1               0 
1
              1               0               0               0 
              0               1               0               0 
              0               0               1               8 
1
              1               0               0               0 
              0               1               0               0 
              0               0               1              27 
2  3 1 2 -1 0
2  2 -1 0
2  3 -1 0
1
              1               0               0               0 
              0               1               0               0 
              0               0               1               8 
2  7 -1 0
Curve2ds 34
1 0 8 1 0 
2 0 0 1 0 -0 1 115
8 0 6.2831853071795862
1 0 0 1 0 
1 6.2831853071795862 -0 0 1 
1 0 -0 0 1 
1 0 0 1 0 
2 0 0 1 0 -0 1 115
1 0 19 1 0 
2 0 0 1 0 -0 1 115
8 0 6.2831853071795862
1 0 0 1 0 
1 6.2831853071795862 -0 0 1 
1 0 -0 0 1 
1 0 8 1 0 
2 0 0 1 0 -0 1 115
1 6.2831853071795862 -0 0 1 
1 0 -0 0 1 
1 0 8 1 0 
2 0 0 1 0 -0 1 46
1 6.2831853071795862 -0 0 1 
1 0 -0 0 1 
1 0 0 1 0 
2 0 0 1 0 -0 1 46
1 0 19 1 0 
2 0 0 1 0 -0 1 107
1 6.2831853071795862 -0 0 1 
1 0 -0 0 1 
1 0 0 1 0 
2 0 0 1 0 -0 1 107
1 0 0 1 0 
2 0 0 1 0 -0 1 37
1 0 27 1 0 
2 0 0 1 0 -0 1 37
1 6.2831853071795862 -0 0 1 
1 0 -0 0 1 
Curves 16
2 0 0 8 0 0 1 1 0 -0 -0 1 0 115
1 115 -2.8166876380389125e-14 0 0 0 1 
2 0 0 0 0 0 1 1 0 -0 -0 1 0 115
2 0 0 19 0 0 1 1 0 -0 -0 1 0 115
1 115 -2.8166876380389125e-14 0 0 0 1 
2 0 0 8 0 0 1 1 0 -0 -0 1 0 115
1 115 -2.8166876380389125e-14 0 0 0 1 
2 0 0 8 0 0 1 1 0 -0 -0 1 0 46
1 46 -1.1266750552155649e-14 0 0 0 1 
2 0 0 0 0 0 1 1 0 -0 -0 1 0 46
2 0 0 19 0 0 1 1 0 -0 -0 1 0 107
1 107 -2.620744150175336e-14 0 0 0 1 
2 0 0 0 0 0 1 1 0 -0 -0 1 0 107
2 0 0 0 0 0 1 1 0 -0 -0 1 0 37
2 0 0 27 0 0 1 1 0 -0 -0 1 0 37
1 37 -9.0623863136904136e-15 0 0 0 1 
Polygon3D 0
PolygonOnTriangulations 0
Surfaces 17
2 0 0 0 0 0 1 1 0 -0 -0 1 0 115
1 0 0 8 0 0 1 1 0 -0 -0 1 0 
2 0 0 0 0 0 1 1 0 -0 -0 1 0 115
1 0 0 0 0 0 1 1 0 -0 -0 1 0 
1 0 0 19 0 0 1 1 0 -0 -0 1 0 
2 0 0 0 0 0 1 1 0 -0 -0 1 0 115
1 0 0 8 0 0 1 1 0 -0 -0 1 0 
2 0 0 0 0 0 1 1 0 -0 -0 1 0 46
1 0 0 8 0 0 1 1 0 -0 -0 1 0 
1 0 0 0 0 0 1 1 0 -0 -0 1 0 
1 0 0 0 0 0 1 1 0 -0 -0 1 0 
2 0 0 0 0 0 1 1 0 -0 -0 1 0 107
1 0 0 19 0 0 1 1 0 -0 -0 1 0 
1 0 0 0 0 0 1 1 0 -0 -0 1 0 
2 0 0 0 0 0 1 1 0 -0 -0 1 0 37
1 0 0 0 0 0 1 1 0 -0 -0 1 0 
1 0 0 27 0 0 1 1 0 -0 -0 1 0 
Triangulations 0

TShapes 55
Ve
1.00000108459641e-07
115 -2.81668763803891e-14 8
0 0

0101101
*
Ed
 1.00000108459641e-07 1 1 0
1  1 0 0 6.28318530717959
2  1 1 0 0 6.28318530717959
2  2 2 0 0 6.28318530717959
2  3 3 2 0 6.28318530717959
0

0101000
+55 0 -55 0 *
Ve
1e-07
115 -2.81668763803891e-14 0
0 0

0101101
*
Ed
 1e-07 1 1 0
1  2 0 0 8
3  4 5CN 1 0 0 8
0

0101000
+53 0 -55 0 *
Ed
 1e-07 1 1 0
1  3 0 0 6.28318530717959
2  6 1 0 0 6.28318530717959
2  7 4 0 0 6.28318530717959
0

0101000
+53 0 -53 0 *
Wi

0101100
-54 0 +52 0 +51 0 -52 0 *
Fa
0  1e-07 1 0

0111000
+50 0 *
Ve
1.00000108459641e-07
115 -2.81668763803891e-14 27
0 0

0101101
*
Ed
 1.00000108459641e-07 1 1 0
1  4 0 0 6.28318530717959
2  8 3 0 0 6.28318530717959
2  9 5 0 0 6.28318530717959
2  10 6 4 0 6.28318530717959
0

0101000
+48 5 -48 5 *
Ed
 1e-07 1 1 0
1  5 0 0 19
3  11 12CN 3 0 0 19
0

0101000
+55 5 -48 5 *
Wi

0101100
-47 2 +46 2 +54 0 -46 2 *
Fa
0  1e-07 3 2

0111000
+45 0 *
Wi

0101100
-51 0 *
Fa
0  1e-07 4 0

0111000
-43 0 *
Ve
1e-07
115 -2.81668763803891e-14 8
0 0

0101101
*
Ed
 1e-07 1 1 0
1  6 0 0 6.28318530717959
2  13 6 0 0 6.28318530717959
2  14 7 0 0 6.28318530717959
0

0101000
+41 0 -41 0 *
Ed
 1e-07 1 1 0
1  7 0 0 8
3  15 16CN 6 0 0 8
0

0101000
+48 6 -41 0 *
Wi

0101100
-40 3 +39 3 +47 2 -39 3 *
Fa
0  1e-07 6 3

0111000
+38 0 *
Wi

0101100
+40 0 *
Ve
1e-07
46 -1.12667505521556e-14 8
0 0

0101101
*
Ed
 1e-07 1 1 0
1  8 0 0 6.28318530717959
2  17 8 0 0 6.28318530717959
2  18 9 0 0 6.28318530717959
0

0101000
+35 0 -35 0 *
Wi

0101100
-34 0 *
Fa
0  1e-07 7 0

0111000
+36 0 +33 0 *
Ve
1e-07
46 -1.12667505521556e-14 0
0 0

0101101
*
Ed
 1e-07 1 1 0
1  9 0 0 8
3  19 20CN 8 0 0 8
0

0101000
+31 0 -35 0 *
Ed
 1e-07 1 1 0
1  10 0 0 6.28318530717959
2  21 8 0 0 6.28318530717959
2  22 10 0 0 6.28318530717959
0

0101000
+31 0 -31 0 *
Wi

0101100
-34 0 +30 0 +29 0 -30 0 *
Fa
0  1e-07 8 0

0111000
+28 0 *
Ve
1e-07
107 -2.62074415017534e-14 27
0 0

0101101
*
Ed
 1e-07 1 1 0
1  11 0 0 6.28318530717959
2  23 12 0 0 6.28318530717959
2  24 13 0 0 6.28318530717959
0

0101000
+26 5 -26 5 *
Wi

0101100
+25 2 *
Wi

0101100
-29 3 *
Fa
0  1e-07 11 3

0111000
+24 0 +23 0 *
Ve
1e-07
107 -2.62074415017534e-14 8
0 0

0101101
*
Ed
 1e-07 1 1 0
1  12 0 0 19
3  25 26CN 12 0 0 19
0

0101000
+21 5 -26 5 *
Ed
 1e-07 1 1 0
1  13 0 0 6.28318530717959
2  27 12 0 0 6.28318530717959
2  28 14 0 0 6.28318530717959
0

0101000
+21 5 -21 5 *
Wi

0101100
-25 2 +20 2 +19 2 -20 2 *
Fa
0  1e-07 12 2

0111000
+18 0 *
Wi

0101100
+19 2 *
Ve
1e-07
37 -9.06238631369041e-15 8
0 0

0101101
*
Ed
 1e-07 1 1 0
1  14 0 0 6.28318530717959
2  29 15 0 0 6.28318530717959
2  30 16 0 0 6.28318530717959
0

0101000
+15 8 -15 8 *
Wi

0101100
-14 7 *
Fa
0  1e-07 2 0

0111000
+16 0 +13 0 *
Ve
1e-07
37 -9.06238631369041e-15 27
0 0

0101101
*
Ed
 1e-07 1 1 0
1  15 0 0 6.28318530717959
2  31 15 0 0 6.28318530717959
2  32 17 0 0 6.28318530717959
0

0101000
+11 0 -11 0 *
Ed
 1e-07 1 1 0
1  16 0 0 27
3  33 34CN 15 0 0 27
0

0101000
+15 8 -11 0 *
Wi

0101100
-10 7 +9 7 +14 7 -9 7 *
Fa
0  1e-07 15 7

0111000
+8 0 *
Wi

0101100
+10 0 *
Fa
0  1e-07 17 0

0111000
+6 0 *
Sh

0101100
+49 0 +44 0 -42 0 +37 0 +32 3 -27 3 -22 0 -17 0 +12 0 +7 0 
+5 7 *
So

0100000
+4 0 *
Co

0100000
+3 0 *
Co

1100000
+2 1 *

+1 0 