DBRep_DrawableShape

CASCADE Topology V1, (c) Matra-Datavision
Locations 11
1
              1               0               0               0 
              0               1               0               0 
              0               0               1               0 
1
              1               0               0               0 
              0               1               0               0 
              0               0               1              -1 
1
              1               0               0               0 
              0               1               0               0 
              0               0               1               8 
1
              1               0               0               0 
              0               1               0               0 
              0               0               1              27 
2  4 1 3 -1 0
2  3 -1 0
2  4 -1 0
1
              1               0               0               0 
              0               1               0               0 
              0               0               1               8 
2  8 -1 0
1
              1               0               0               0 
              0               1               0               0 
              0               0               1               8 
1
              1               0               0               0 
              0               1               0               0 
              0               0               1               8 
Curve2ds 35
1 0 71 1 0 
2 0 0 1 0 -0 1 143
1 6.2831853071795862 -0 0 1 
1 0 -0 0 1 
1 0 0 1 0 
2 0 0 1 0 -0 1 143
1 0 19 1 0 
2 0 0 1 0 -0 1 46
8 0 6.2831853071795862
1 0 0 1 0 
1 6.2831853071795862 -0 0 1 
1 0 -0 0 1 
1 0 0 1 0 
2 0 0 1 0 -0 1 46
1 0 8 1 0 
2 0 0 1 0 -0 1 46
1 6.2831853071795862 -0 0 1 
1 0 -0 0 1 
1 0 0 1 0 
2 0 0 1 0 -0 1 37
2 0 0 1 0 -0 1 115
1 0 35 1 0 
1 0 27 1 0 
2 0 0 1 0 -0 1 37
1 6.2831853071795862 -0 0 1 
1 0 -0 0 1 
1 6.2831853071795862 0 0 1 
1 0 0 0 1 
2 0 0 1 0 -0 1 115
1 0 0 1 0 
1 0 19 1 0 
2 0 0 1 0 -0 1 107
1 6.2831853071795862 -0 0 1 
1 0 -0 0 1 
1 0 0 1 0 
2 0 0 1 0 -0 1 107
Curves 17
2 0 0 71 0 0 1 1 0 -0 -0 1 0 143
1 143 -3.5024898455614303e-14 0 0 0 1 
2 0 0 0 0 0 1 1 0 -0 -0 1 0 143
2 0 0 19 0 0 1 1 0 -0 -0 1 0 46
1 46 -1.1266750552155649e-14 0 0 0 1 
2 0 0 0 0 0 1 1 0 -0 -0 1 0 46
2 0 0 8 0 0 1 1 0 -0 -0 1 0 46
1 46 -1.1266750552155649e-14 0 0 0 1 
2 0 0 0 0 0 1 1 0 -0 -0 1 0 37
2 0 0 35 0 0 1 1 0 -0 -0 1 0 115
2 0 0 27 0 0 1 1 0 -0 -0 1 0 37
1 37 -9.0623863136904136e-15 0 0 0 1 
7 0 0  1 2 2  115 -2.8166876380389125e-14 0  115 -2.8166876380389125e-14 35 
 0 2 35 2
2 0 0 0 0 0 1 1 0 -0 -0 1 0 115
2 0 0 19 0 0 1 1 0 -0 -0 1 0 107
1 107 -2.620744150175336e-14 0 0 0 1 
2 0 0 0 0 0 1 1 0 -0 -0 1 0 107
Polygon3D 0
PolygonOnTriangulations 0
Surfaces 18
2 0 0 0 0 0 1 1 0 -0 -0 1 0 143
1 0 0 71 0 0 1 1 0 -0 -0 1 0 
1 0 0 0 0 0 1 1 0 -0 -0 1 0 
2 0 0 0 0 0 1 1 0 -0 -0 1 0 46
1 0 0 19 0 0 1 1 0 -0 -0 1 0 
2 0 0 0 0 0 1 1 0 -0 -0 1 0 46
1 0 0 0 0 0 1 1 0 -0 -0 1 0 
1 0 0 8 0 0 1 1 0 -0 -0 1 0 
1 0 0 8 0 0 1 1 0 -0 -0 1 0 
2 0 0 0 0 0 1 1 0 -0 -0 1 0 37
1 0 0 0 0 0 1 1 0 -0 -0 1 0 
1 0 0 8 0 0 1 1 0 -0 -0 1 0 
10 0 6.2831853071795862 0 35
2 0 0 0 0 0 1 1 0 -0 -0 1 0 115
1 0 0 27 0 0 1 1 0 -0 -0 1 0 
1 0 0 0 0 0 1 1 0 -0 -0 1 0 
2 0 0 0 0 0 1 1 0 -0 -0 1 0 107
1 0 0 19 0 0 1 1 0 -0 -0 1 0 
1 0 0 0 0 0 1 1 0 -0 -0 1 0 
Triangulations 0

TShapes 84
Ve
1e-07
143 -3.50248984556143e-14 71
0 0

0101101
*
Ed
 1e-07 1 1 0
1  1 0 0 6.28318530717959
2  1 1 0 0 6.28318530717959
2  2 2 0 0 6.28318530717959
0

0101000
+84 0 -84 0 *
Ve
1e-07
143 -3.50248984556143e-14 0
0 0

0101101
*
Ed
 1e-07 1 1 0
1  2 0 0 71
3  3 4CN 1 0 0 71
0

0101000
-84 0 +82 0 *
Ed
 1e-07 1 1 0
1  3 0 0 6.28318530717959
2  5 1 0 0 6.28318530717959
2  6 3 0 0 6.28318530717959
0

0101000
+82 0 -82 0 *
Wi

0101100
-83 0 +81 0 +80 0 -81 0 *
Fa
0  1e-07 1 0

0111000
+79 0 *
Wi

0101100
+83 0 *
Fa
0  1e-07 2 0

0111000
+77 0 *
Wi

0101100
-80 0 *
Fa
0  1e-07 3 0

0111000
-75 0 *
Sh

0101100
+78 2 +76 2 -74 2 *
Ve
1.00000041431405e-07
46 -1.12667505521557e-14 27
0 0

0101101
*
Ed
 1.00000041431405e-07 1 1 0
1  4 0 0 6.28318530717959
2  7 4 0 0 6.28318530717959
2  8 5 0 0 6.28318530717959
2  9 6 5 0 6.28318530717959
0

0101000
+72 6 -72 6 *
Ve
1e-07
46 -1.12667505521556e-14 8
0 0

0101101
*
Ed
 1e-07 1 1 0
1  5 0 0 19
3  10 11CN 4 0 0 19
0

0101000
+70 6 -72 6 *
Ed
 1e-07 1 1 0
1  6 0 0 6.28318530717959
2  12 4 0 0 6.28318530717959
2  13 7 0 0 6.28318530717959
0

0101000
+70 6 -70 6 *
Wi

0101100
-71 3 +69 3 +68 3 -69 3 *
Fa
0  1e-07 4 3

0111000
+67 0 *
Ve
1e-07
46 -1.12667505521556e-14 8
0 0

0101101
*
Ed
 1e-07 1 1 0
1  7 0 0 6.28318530717959
2  14 6 0 0 6.28318530717959
2  15 8 0 0 6.28318530717959
0

0101000
+65 0 -65 0 *
Ed
 1e-07 1 1 0
1  8 0 0 8
3  16 17CN 6 0 0 8
0

0101000
+72 7 -65 0 *
Wi

0101100
-64 4 +63 4 +71 3 -63 4 *
Fa
0  1e-07 6 4

0111000
+62 0 *
Wi

0101100
+68 3 *
Ve
1e-07
37 -9.06238631369041e-15 8
0 0

0101101
*
Ed
 1e-07 1 1 0
1  9 0 0 6.28318530717959
2  18 10 0 0 6.28318530717959
2  19 11 0 0 6.28318530717959
0

0101000
+59 9 -59 9 *
Wi

0101100
-58 8 *
Fa
0  1e-07 9 0

0111000
+60 0 +57 0 *
Ve
1e-05
115 -2.81668763803891e-14 35
0 0

0101101
*
Ed
 1e-07 1 1 0
1  10 0 0 6.28318530717959
2  20 12 4 0 6.28318530717959
2  21 13 0 0 6.28318530717959
4 C0 12 4 13 0
0

0101000
+55 0 -55 0 *
Wi

0101100
+54 7 *
Wi

0101100
-64 0 *
Fa
0  1e-07 12 0

0111000
+53 0 +52 0 *
Ve
1e-07
37 -9.06238631369041e-15 27
0 0

0101101
*
Ed
 1e-07 1 1 0
1  11 0 0 6.28318530717959
2  22 10 0 0 6.28318530717959
2  23 14 0 0 6.28318530717959
0

0101000
+50 0 -50 0 *
Ed
 1e-07 1 1 0
1  12 0 0 27
3  24 25CN 10 0 0 27
0

0101000
+59 9 -50 0 *
Wi

0101100
-49 8 +48 8 +58 8 -48 8 *
Fa
0  1e-07 10 8

0111000
+47 0 *
Ve
1e-05
115 -2.81668763803891e-14 0
0 0

0101101
*
Ed
 1e-05 1 1 0
1  13 0 0 35
3  26 27C0 13 0 0 35
0

0101000
-55 0 +45 0 *
Ed
 1e-07 1 1 0
1  14 0 0 6.28318530717959
2  28 15 0 0 6.28318530717959
2  29 13 0 0 6.28318530717959
4 C0 13 0 15 0
0

0101000
+45 0 -45 0 *
Wi

0101100
-54 0 -44 0 +43 0 +44 0 *
Fa
0  1e-07 13 0

0111000
+42 0 *
Wi

0101100
+49 0 *
Fa
0  1e-07 14 0

0111000
+40 0 *
Wi

0101100
-43 0 *
Fa
0  1e-07 15 0

0111000
-38 0 *
Sh

0101100
+66 0 +61 0 -56 0 -51 4 -46 0 -41 0 -39 8 +37 0 *
So

0100000
+73 0 +36 0 *
Co

0100000
+35 0 *
Ve
1e-07
107 -2.62074415017534e-14 19
0 0

0101101
*
Ed
 1e-07 1 1 0
1  15 0 0 6.28318530717959
2  30 16 0 0 6.28318530717959
2  31 17 0 0 6.28318530717959
0

0101000
+33 0 -33 0 *
Ve
1e-07
107 -2.62074415017534e-14 0
0 0

0101101
*
Ed
 1e-07 1 1 0
1  16 0 0 19
3  32 33CN 16 0 0 19
0

0101000
-33 0 +31 0 *
Ed
 1e-07 1 1 0
1  17 0 0 6.28318530717959
2  34 16 0 0 6.28318530717959
2  35 18 0 0 6.28318530717959
0

0101000
+31 0 -31 0 *
Wi

0101100
-32 0 +30 0 +29 0 -30 0 *
Fa
0  1e-07 16 0

0111000
+28 0 *
Wi

0101100
+32 0 *
Ve
1e-07
46 -1.12667505521556e-14 19
0 0

0101101
*
Ed
 1e-07 1 1 0
1  4 0 0 6.28318530717959
2  7 4 0 0 6.28318530717959
2  8 5 0 0 6.28318530717959
0

0101000
+25 0 -25 0 *
Wi

0101100
-24 0 *
Fa
0  1e-07 17 0

0111000
+26 0 +23 0 *
Wi

0101100
+29 0 *
Ve
1e-07
46 -1.12667505521556e-14 0
0 0

0101101
*
Ed
 1e-07 1 1 0
1  6 0 0 6.28318530717959
2  12 4 0 0 6.28318530717959
2  13 7 0 0 6.28318530717959
0

0101000
+20 0 -20 0 *
Wi

0101100
-19 0 *
Fa
0  1e-07 18 0

0111000
+21 0 +18 0 *
Ed
 1e-07 1 1 0
1  5 0 0 19
3  10 11CN 4 0 0 19
0

0101000
+20 0 -25 0 *
Wi

0101100
-24 0 +16 0 +19 0 -16 0 *
Fa
0  1e-07 4 0

0111000
+15 0 *
Sh

0101100
+27 0 +22 0 -17 0 -14 0 *
So

0100000
+13 0 *
Co

0100000
+12 0 *
Ve
1e-07
37 -9.06238631369041e-15 0
0 0

0101101
*
Ed
 1e-07 1 1 0
1  12 0 0 27
3  24 25CN 10 0 0 27
0

0101000
-50 0 +10 0 *
Ed
 1e-07 1 1 0
1  9 0 0 6.28318530717959
2  18 10 0 0 6.28318530717959
2  19 11 0 0 6.28318530717959
0

0101000
+10 0 -10 0 *
Wi

0101100
-49 0 +9 0 +8 0 -9 0 *
Fa
0  1e-07 10 0

0111000
+7 0 *
Wi

0101100
-8 0 *
Fa
0  1e-07 11 0

0111000
-5 0 *
Sh

0101100
+6 0 +39 0 -4 0 *
So

0100000
+3 0 *
Co

1100000
+34 1 +11 10 +2 11 *

+1 0 