DBRep_DrawableShape

CASCADE Topology V1, (c) Matra-Datavision
Locations 14
1
              1               0               0               0 
              0               1               0               0 
              0               0               1               8 
1
              1               0               0               0 
              0               1               0               0 
              0               0               1               8 
1
              1               0               0               0 
              0               1               0               0 
              0               0               1               0 
1
              1               0               0               0 
              0               1               0               0 
              0               0               1              27 
2  4 -1 0
1
              1               0               0               0 
              0               1               0               0 
              0               0               1               8 
2  6 -1 0
1
              1               0               0               0 
              0               1               0               0 
              0               0               1               0 
1
              1               0               0               0 
              0               1               0               0 
              0               0               1              -1 
1
              1               0               0               0 
              0               1               0               0 
              0               0               1               8 
2  4 1 10 -1 0
2  10 -1 0
1
              1               0               0               0 
              0               1               0               0 
              0               0               1               8 
2  13 -1 0
Curve2ds 43
1 0 19 1 0 
2 0 0 1 0 -0 1 107
1 6.2831853071795862 -0 0 1 
1 0 -0 0 1 
1 0 0 1 0 
2 0 0 1 0 -0 1 107
1 0 19 1 0 
2 0 0 1 0 -0 1 46
1 0 0 1 0 
2 0 0 1 0 -0 1 46
1 6.2831853071795862 -0 0 1 
1 0 -0 0 1 
1 0 27 1 0 
2 0 0 1 0 -0 1 37
1 6.2831853071795862 -0 0 1 
1 0 -0 0 1 
1 0 0 1 0 
2 0 0 1 0 -0 1 37
2 0 0 1 0 -0 1 115
1 0 35 1 0 
1 0 8 1 0 
2 0 0 1 0 -0 1 46
1 6.2831853071795862 -0 0 1 
1 0 -0 0 1 
1 0 0 1 0 
2 0 0 1 0 -0 1 46
1 0 19 1 0 
2 0 0 1 0 -0 1 107
1 6.2831853071795862 -0 0 1 
1 0 -0 0 1 
1 0 0 1 0 
2 0 0 1 0 -0 1 107
1 6.2831853071795862 0 0 1 
1 0 0 0 1 
2 0 0 1 0 -0 1 115
1 0 0 1 0 
1 0 71 1 0 
2 0 0 1 0 -0 1 143
1 6.2831853071795862 -0 0 1 
1 0 -0 0 1 
1 0 0 1 0 
2 0 0 1 0 -0 1 143
8 0 6.2831853071795862
1 0 0 1 0 
Curves 21
2 0 0 19 0 0 1 1 0 -0 -0 1 0 107
1 107 -2.620744150175336e-14 0 0 0 1 
2 0 0 0 0 0 1 1 0 -0 -0 1 0 107
2 0 0 19 0 0 1 1 0 -0 -0 1 0 46
2 0 0 0 0 0 1 1 0 -0 -0 1 0 46
1 46 -1.1266750552155649e-14 0 0 0 1 
2 0 0 27 0 0 1 1 0 -0 -0 1 0 37
1 37 -9.0623863136904136e-15 0 0 0 1 
2 0 0 0 0 0 1 1 0 -0 -0 1 0 37
2 0 0 35 0 0 1 1 0 -0 -0 1 0 115
2 0 0 8 0 0 1 1 0 -0 -0 1 0 46
1 46 -1.1266750552155649e-14 0 0 0 1 
2 0 0 0 0 0 1 1 0 -0 -0 1 0 46
2 0 0 19 0 0 1 1 0 -0 -0 1 0 107
1 107 -2.620744150175336e-14 0 0 0 1 
2 0 0 0 0 0 1 1 0 -0 -0 1 0 107
7 0 0  1 2 2  115 -2.8166876380389125e-14 0  115 -2.8166876380389125e-14 35 
 0 2 35 2
2 0 0 0 0 0 1 1 0 -0 -0 1 0 115
2 0 0 71 0 0 1 1 0 -0 -0 1 0 143
1 143 -3.5024898455614303e-14 0 0 0 1 
2 0 0 0 0 0 1 1 0 -0 -0 1 0 143
Polygon3D 0
PolygonOnTriangulations 0
Surfaces 23
2 0 0 0 0 0 1 1 0 -0 -0 1 0 107
1 0 0 19 0 0 1 1 0 -0 -0 1 0 
1 0 0 0 0 0 1 1 0 -0 -0 1 0 
2 0 0 0 0 0 1 1 0 -0 -0 1 0 46
1 0 0 19 0 0 1 1 0 -0 -0 1 0 
1 0 0 0 0 0 1 1 0 -0 -0 1 0 
2 0 0 0 0 0 1 1 0 -0 -0 1 0 37
1 0 0 27 0 0 1 1 0 -0 -0 1 0 
1 0 0 0 0 0 1 1 0 -0 -0 1 0 
1 0 0 8 0 0 1 1 0 -0 -0 1 0 
10 0 6.2831853071795862 0 35
2 0 0 0 0 0 1 1 0 -0 -0 1 0 115
2 0 0 0 0 0 1 1 0 -0 -0 1 0 46
1 0 0 8 0 0 1 1 0 -0 -0 1 0 
1 0 0 0 0 0 1 1 0 -0 -0 1 0 
1 0 0 0 0 0 1 1 0 -0 -0 1 0 
2 0 0 0 0 0 1 1 0 -0 -0 1 0 107
1 0 0 19 0 0 1 1 0 -0 -0 1 0 
1 0 0 0 0 0 1 1 0 -0 -0 1 0 
1 0 0 8 0 0 1 1 0 -0 -0 1 0 
1 0 0 0 0 0 1 1 0 -0 -0 1 0 
2 0 0 0 0 0 1 1 0 -0 -0 1 0 143
1 0 0 71 0 0 1 1 0 -0 -0 1 0 
1 0 0 0 0 0 1 1 0 -0 -0 1 0 
Triangulations 0

TShapes 104
Ve
1e-07
107 -2.62074415017534e-14 19
0 0

0101101
*
Ed
 1e-07 1 1 0
1  1 0 0 6.28318530717959
2  1 1 0 0 6.28318530717959
2  2 2 0 0 6.28318530717959
0

0101000
+104 0 -104 0 *
Ve
1e-07
107 -2.62074415017534e-14 0
0 0

0101101
*
Ed
 1e-07 1 1 0
1  2 0 0 19
3  3 4CN 1 0 0 19
0

0101000
-104 0 +102 0 *
Ed
 1e-07 1 1 0
1  3 0 0 6.28318530717959
2  5 1 0 0 6.28318530717959
2  6 3 0 0 6.28318530717959
0

0101000
+102 0 -102 0 *
Wi

0101100
-103 0 +101 0 +100 0 -101 0 *
Fa
0  1e-07 1 0

0111000
+99 0 *
Wi

0101100
+103 0 *
Ve
1e-07
46 -1.12667505521556e-14 19
0 0

0101101
*
Ed
 1e-07 1 1 0
1  4 0 0 6.28318530717959
2  7 4 0 0 6.28318530717959
2  8 5 0 0 6.28318530717959
0

0101000
+96 0 -96 0 *
Wi

0101100
-95 0 *
Fa
0  1e-07 2 0

0111000
+97 0 +94 0 *
Wi

0101100
+100 0 *
Ve
1e-07
46 -1.12667505521556e-14 0
0 0

0101101
*
Ed
 1e-07 1 1 0
1  5 0 0 6.28318530717959
2  9 4 0 0 6.28318530717959
2  10 6 0 0 6.28318530717959
0

0101000
+91 0 -91 0 *
Wi

0101100
-90 0 *
Fa
0  1e-07 3 0

0111000
+92 0 +89 0 *
Ed
 1e-07 1 1 0
1  6 0 0 19
3  11 12CN 4 0 0 19
0

0101000
+91 0 -96 0 *
Wi

0101100
-95 0 +87 0 +90 0 -87 0 *
Fa
0  1e-07 4 0

0111000
+86 0 *
Sh

0101100
+98 0 +93 0 -88 0 -85 0 *
So

0100000
+84 0 *
Co

0100000
+83 0 *
Ve
1e-07
37 -9.06238631369041e-15 27
0 0

0101101
*
Ed
 1e-07 1 1 0
1  7 0 0 6.28318530717959
2  13 7 0 0 6.28318530717959
2  14 8 0 0 6.28318530717959
0

0101000
+81 0 -81 0 *
Ve
1e-07
37 -9.06238631369041e-15 0
0 0

0101101
*
Ed
 1e-07 1 1 0
1  8 0 0 27
3  15 16CN 7 0 0 27
0

0101000
-81 0 +79 0 *
Ed
 1e-07 1 1 0
1  9 0 0 6.28318530717959
2  17 7 0 0 6.28318530717959
2  18 9 0 0 6.28318530717959
0

0101000
+79 0 -79 0 *
Wi

0101100
-80 0 +78 0 +77 0 -78 0 *
Fa
0  1e-07 7 0

0111000
+76 0 *
Wi

0101100
+80 0 *
Fa
0  1e-07 8 0

0111000
+74 0 *
Wi

0101100
-77 0 *
Fa
0  1e-07 9 0

0111000
-72 0 *
Sh

0101100
+75 0 +73 0 -71 0 *
So

0100000
+70 0 *
Ve
1e-05
115 -2.81668763803891e-14 35
0 0

0101101
*
Ed
 1e-07 1 1 0
1  10 0 0 6.28318530717959
2  19 10 4 0 6.28318530717959
2  20 11 0 0 6.28318530717959
4 C0 10 4 11 0
0

0101000
+68 0 -68 0 *
Wi

0101100
+67 5 *
Ve
1e-07
46 -1.12667505521556e-14 8
0 0

0101101
*
Ed
 1e-07 1 1 0
1  11 0 0 6.28318530717959
2  21 12 0 0 6.28318530717959
2  22 13 0 0 6.28318530717959
0

0101000
+65 0 -65 0 *
Wi

0101100
-64 0 *
Fa
0  1e-07 10 0

0111000
+66 0 +63 0 *
Ve
1e-07
46 -1.12667505521556e-14 0
0 0

0101101
*
Ed
 1e-07 1 1 0
1  12 0 0 8
3  23 24CN 12 0 0 8
0

0101000
+61 0 -65 0 *
Ed
 1e-07 1 1 0
1  13 0 0 6.28318530717959
2  25 12 0 0 6.28318530717959
2  26 14 0 0 6.28318530717959
0

0101000
+61 0 -61 0 *
Wi

0101100
-64 0 +60 0 +59 0 -60 0 *
Fa
0  1e-07 12 0

0111000
+58 0 *
Ve
1e-07
107 -2.62074415017534e-14 27
0 0

0101101
*
Ed
 1e-07 1 1 0
1  14 0 0 6.28318530717959
2  27 16 0 0 6.28318530717959
2  28 17 0 0 6.28318530717959
0

0101000
+56 7 -56 7 *
Wi

0101100
+55 6 *
Wi

0101100
-59 4 *
Fa
0  1e-07 15 4

0111000
+54 0 +53 0 *
Ve
1e-07
107 -2.62074415017534e-14 8
0 0

0101101
*
Ed
 1e-07 1 1 0
1  15 0 0 19
3  29 30CN 16 0 0 19
0

0101000
+51 7 -56 7 *
Ed
 1e-07 1 1 0
1  16 0 0 6.28318530717959
2  31 16 0 0 6.28318530717959
2  32 18 0 0 6.28318530717959
0

0101000
+51 7 -51 7 *
Wi

0101100
-55 6 +50 6 +49 6 -50 6 *
Fa
0  1e-07 16 6

0111000
+48 0 *
Wi

0101100
+49 6 *
Fa
0  1e-07 19 0

0111000
+46 0 *
Ve
1e-05
115 -2.81668763803891e-14 0
0 0

0101101
*
Ed
 1e-05 1 1 0
1  17 0 0 35
3  33 34C0 11 0 0 35
0

0101000
-68 0 +44 0 *
Ed
 1e-07 1 1 0
1  18 0 0 6.28318530717959
2  35 20 0 0 6.28318530717959
2  36 11 0 0 6.28318530717959
4 C0 11 0 20 0
0

0101000
+44 0 -44 0 *
Wi

0101100
-67 0 -43 0 +42 0 +43 0 *
Fa
0  1e-07 11 0

0111000
+41 0 *
Wi

0101100
-42 0 *
Fa
0  1e-07 20 0

0111000
-39 0 *
Sh

0101100
+62 4 -57 4 -52 0 -47 0 +45 0 +40 0 -38 0 *
So

0100000
+37 0 *
Co

0100000
+36 0 *
Ve
1e-07
143 -3.50248984556143e-14 71
0 0

0101101
*
Ed
 1e-07 1 1 0
1  19 0 0 6.28318530717959
2  37 21 0 0 6.28318530717959
2  38 22 0 0 6.28318530717959
0

0101000
+34 0 -34 0 *
Ve
1e-07
143 -3.50248984556143e-14 0
0 0

0101101
*
Ed
 1e-07 1 1 0
1  20 0 0 71
3  39 40CN 21 0 0 71
0

0101000
-34 0 +32 0 *
Ed
 1e-07 1 1 0
1  21 0 0 6.28318530717959
2  41 21 0 0 6.28318530717959
2  42 23 0 0 6.28318530717959
0

0101000
+32 0 -32 0 *
Wi

0101100
-33 0 +31 0 +30 0 -31 0 *
Fa
0  1e-07 21 0

0111000
+29 0 *
Wi

0101100
+33 0 *
Fa
0  1e-07 22 0

0111000
+27 0 *
Wi

0101100
-30 0 *
Fa
0  1e-07 23 0

0111000
-25 0 *
Sh

0101100
+28 9 +26 9 -24 9 *
Ve
1.00000041431405e-07
46 -1.12667505521557e-14 27
0 0

0101101
*
Ed
 1.00000041431405e-07 1 1 0
1  4 0 0 6.28318530717959
2  7 4 0 0 6.28318530717959
2  8 5 0 0 6.28318530717959
2  43 12 11 0 6.28318530717959
0

0101000
+22 12 -22 12 *
Ve
1e-07
46 -1.12667505521556e-14 8
0 0

0101101
*
Ed
 1e-07 1 1 0
1  6 0 0 19
3  11 12CN 4 0 0 19
0

0101000
+20 12 -22 12 *
Ed
 1e-07 1 1 0
1  5 0 0 6.28318530717959
2  9 4 0 0 6.28318530717959
2  10 6 0 0 6.28318530717959
0

0101000
+20 12 -20 12 *
Wi

0101100
-21 10 +19 10 +18 10 -19 10 *
Fa
0  1e-07 4 10

0111000
+17 0 *
Ed
 1e-07 1 1 0
1  12 0 0 8
3  23 24CN 12 0 0 8
0

0101000
+22 5 -65 0 *
Wi

0101100
-64 4 +15 4 +21 10 -15 4 *
Fa
0  1e-07 12 4

0111000
+14 0 *
Wi

0101100
+18 10 *
Ve
1e-07
37 -9.06238631369041e-15 8
0 0

0101101
*
Ed
 1e-07 1 1 0
1  9 0 0 6.28318530717959
2  17 7 0 0 6.28318530717959
2  18 9 0 0 6.28318530717959
0

0101000
+11 14 -11 14 *
Wi

0101100
-10 13 *
Fa
0  1e-07 19 0

0111000
+12 0 +9 0 *
Ed
 1e-07 1 1 0
1  8 0 0 27
3  15 16CN 7 0 0 27
0

0101000
+11 14 -81 0 *
Wi

0101100
-80 13 +7 13 +10 13 -7 13 *
Fa
0  1e-07 7 13

0111000
+6 0 *
Sh

0101100
+16 0 +13 0 -8 0 -62 4 -5 0 -40 0 -73 13 +38 0 *
So

0100000
+23 0 +4 0 *
Co

0100000
+3 0 *
Co

1100000
+82 1 +69 2 +35 3 +2 8 *

+1 0 