DBRep_DrawableShape

CASCADE Topology V1, (c) Matra-Datavision
Locations 15
1
              1               0               0               0 
              0               1               0               0 
              0               0               1               8 
1
              1               0               0               0 
              0               1               0               0 
              0               0               1               8 
1
              1               0               0               0 
              0               1               0               0 
              0               0               1               0 
1
              1               0               0               0 
              0               1               0               0 
              0               0               1              27 
2  4 -1 0
1
              1               0               0               0 
              0               1               0               0 
              0               0               1               8 
2  6 -1 0
1
              1               0               0               0 
              0               1               0               0 
              0               0               1               0 
1
              1               0               0               0 
              0               1               0               0 
              0               0               1               8 
1
              1               0               0               0 
              0               1               0               0 
              0               0               1               8 
2  10 -1 0
1
              1               0               0               0 
              0               1               0               0 
              0               0               1               0 
1
              1               0               0               0 
              0               1               0               0 
              0               0               1              -1 
2  9 1 4 -1 0
2  9 -1 0
Curve2ds 49
1 0 19 1 0 
2 0 0 1 0 -0 1 107
1 6.2831853071795862 -0 0 1 
1 0 -0 0 1 
1 0 0 1 0 
2 0 0 1 0 -0 1 107
1 0 19 1 0 
2 0 0 1 0 -0 1 46
1 0 0 1 0 
2 0 0 1 0 -0 1 46
1 6.2831853071795862 -0 0 1 
1 0 -0 0 1 
1 0 27 1 0 
2 0 0 1 0 -0 1 37
1 6.2831853071795862 -0 0 1 
1 0 -0 0 1 
1 0 0 1 0 
2 0 0 1 0 -0 1 37
2 0 0 1 0 -0 1 115
1 0 35 1 0 
1 0 8 1 0 
2 0 0 1 0 -0 1 46
1 6.2831853071795862 -0 0 1 
1 0 -0 0 1 
1 0 0 1 0 
2 0 0 1 0 -0 1 46
1 0 19 1 0 
2 0 0 1 0 -0 1 107
1 6.2831853071795862 -0 0 1 
1 0 -0 0 1 
1 0 0 1 0 
2 0 0 1 0 -0 1 107
1 6.2831853071795862 0 0 1 
1 0 0 0 1 
2 0 0 1 0 -0 1 115
1 0 0 1 0 
1 0 29 1 0 
2 0 0 1 0 -0 1 46
1 6.2831853071795862 -0 0 1 
1 0 -0 0 1 
1 0 0 1 0 
2 0 0 1 0 -0 1 46
1 0 71 1 0 
2 0 0 1 0 -0 1 143
1 6.2831853071795862 -0 0 1 
1 0 -0 0 1 
1 0 0 1 0 
2 0 0 1 0 -0 1 143
1 0 27 1 0 
Curves 24
2 0 0 19 0 0 1 1 0 -0 -0 1 0 107
1 107 -2.620744150175336e-14 0 0 0 1 
2 0 0 0 0 0 1 1 0 -0 -0 1 0 107
2 0 0 19 0 0 1 1 0 -0 -0 1 0 46
2 0 0 0 0 0 1 1 0 -0 -0 1 0 46
1 46 -1.1266750552155649e-14 0 0 0 1 
2 0 0 27 0 0 1 1 0 -0 -0 1 0 37
1 37 -9.0623863136904136e-15 0 0 0 1 
2 0 0 0 0 0 1 1 0 -0 -0 1 0 37
2 0 0 35 0 0 1 1 0 -0 -0 1 0 115
2 0 0 8 0 0 1 1 0 -0 -0 1 0 46
1 46 -1.1266750552155649e-14 0 0 0 1 
2 0 0 0 0 0 1 1 0 -0 -0 1 0 46
2 0 0 19 0 0 1 1 0 -0 -0 1 0 107
1 107 -2.620744150175336e-14 0 0 0 1 
2 0 0 0 0 0 1 1 0 -0 -0 1 0 107
7 0 0  1 2 2  115 -2.8166876380389125e-14 0  115 -2.8166876380389125e-14 35 
 0 2 35 2
2 0 0 0 0 0 1 1 0 -0 -0 1 0 115
2 0 0 29 0 0 1 1 0 -0 -0 1 0 46
1 46 -1.1266750552155649e-14 0 0 0 1 
2 0 0 0 0 0 1 1 0 -0 -0 1 0 46
2 0 0 71 0 0 1 1 0 -0 -0 1 0 143
1 143 -3.5024898455614303e-14 0 0 0 1 
2 0 0 0 0 0 1 1 0 -0 -0 1 0 143
Polygon3D 0
PolygonOnTriangulations 0
Surfaces 26
2 0 0 0 0 0 1 1 0 -0 -0 1 0 107
1 0 0 19 0 0 1 1 0 -0 -0 1 0 
1 0 0 0 0 0 1 1 0 -0 -0 1 0 
2 0 0 0 0 0 1 1 0 -0 -0 1 0 46
1 0 0 19 0 0 1 1 0 -0 -0 1 0 
1 0 0 0 0 0 1 1 0 -0 -0 1 0 
2 0 0 0 0 0 1 1 0 -0 -0 1 0 37
1 0 0 27 0 0 1 1 0 -0 -0 1 0 
1 0 0 0 0 0 1 1 0 -0 -0 1 0 
1 0 0 8 0 0 1 1 0 -0 -0 1 0 
10 0 6.2831853071795862 0 35
2 0 0 0 0 0 1 1 0 -0 -0 1 0 115
2 0 0 0 0 0 1 1 0 -0 -0 1 0 46
1 0 0 8 0 0 1 1 0 -0 -0 1 0 
1 0 0 0 0 0 1 1 0 -0 -0 1 0 
1 0 0 0 0 0 1 1 0 -0 -0 1 0 
2 0 0 0 0 0 1 1 0 -0 -0 1 0 107
1 0 0 19 0 0 1 1 0 -0 -0 1 0 
1 0 0 0 0 0 1 1 0 -0 -0 1 0 
1 0 0 8 0 0 1 1 0 -0 -0 1 0 
1 0 0 0 0 0 1 1 0 -0 -0 1 0 
2 0 0 0 0 0 1 1 0 -0 -0 1 0 46
1 0 0 29 0 0 1 1 0 -0 -0 1 0 
1 0 0 0 0 0 1 1 0 -0 -0 1 0 
2 0 0 0 0 0 1 1 0 -0 -0 1 0 143
1 0 0 71 0 0 1 1 0 -0 -0 1 0 
1 0 0 0 0 0 1 1 0 -0 -0 1 0 
Triangulations 0

TShapes 114
Ve
1e-07
107 -2.62074415017534e-14 19
0 0

0101101
*
Ed
 1e-07 1 1 0
1  1 0 0 6.28318530717959
2  1 1 0 0 6.28318530717959
2  2 2 0 0 6.28318530717959
0

0101000
+114 0 -114 0 *
Ve
1e-07
107 -2.62074415017534e-14 0
0 0

0101101
*
Ed
 1e-07 1 1 0
1  2 0 0 19
3  3 4CN 1 0 0 19
0

0101000
-114 0 +112 0 *
Ed
 1e-07 1 1 0
1  3 0 0 6.28318530717959
2  5 1 0 0 6.28318530717959
2  6 3 0 0 6.28318530717959
0

0101000
+112 0 -112 0 *
Wi

0101100
-113 0 +111 0 +110 0 -111 0 *
Fa
0  1e-07 1 0

0111000
+109 0 *
Wi

0101100
+113 0 *
Ve
1e-07
46 -1.12667505521556e-14 19
0 0

0101101
*
Ed
 1e-07 1 1 0
1  4 0 0 6.28318530717959
2  7 4 0 0 6.28318530717959
2  8 5 0 0 6.28318530717959
0

0101000
+106 0 -106 0 *
Wi

0101100
-105 0 *
Fa
0  1e-07 2 0

0111000
+107 0 +104 0 *
Wi

0101100
+110 0 *
Ve
1e-07
46 -1.12667505521556e-14 0
0 0

0101101
*
Ed
 1e-07 1 1 0
1  5 0 0 6.28318530717959
2  9 4 0 0 6.28318530717959
2  10 6 0 0 6.28318530717959
0

0101000
+101 0 -101 0 *
Wi

0101100
-100 0 *
Fa
0  1e-07 3 0

0111000
+102 0 +99 0 *
Ed
 1e-07 1 1 0
1  6 0 0 19
3  11 12CN 4 0 0 19
0

0101000
+101 0 -106 0 *
Wi

0101100
-105 0 +97 0 +100 0 -97 0 *
Fa
0  1e-07 4 0

0111000
+96 0 *
Sh

0101100
+108 0 +103 0 -98 0 -95 0 *
So

0100000
+94 0 *
Co

0100000
+93 0 *
Ve
1e-07
37 -9.06238631369041e-15 27
0 0

0101101
*
Ed
 1e-07 1 1 0
1  7 0 0 6.28318530717959
2  13 7 0 0 6.28318530717959
2  14 8 0 0 6.28318530717959
0

0101000
+91 0 -91 0 *
Ve
1e-07
37 -9.06238631369041e-15 0
0 0

0101101
*
Ed
 1e-07 1 1 0
1  8 0 0 27
3  15 16CN 7 0 0 27
0

0101000
-91 0 +89 0 *
Ed
 1e-07 1 1 0
1  9 0 0 6.28318530717959
2  17 7 0 0 6.28318530717959
2  18 9 0 0 6.28318530717959
0

0101000
+89 0 -89 0 *
Wi

0101100
-90 0 +88 0 +87 0 -88 0 *
Fa
0  1e-07 7 0

0111000
+86 0 *
Wi

0101100
+90 0 *
Fa
0  1e-07 8 0

0111000
+84 0 *
Wi

0101100
-87 0 *
Fa
0  1e-07 9 0

0111000
-82 0 *
Sh

0101100
+85 0 +83 0 -81 0 *
So

0100000
+80 0 *
Ve
1e-05
115 -2.81668763803891e-14 35
0 0

0101101
*
Ed
 1e-07 1 1 0
1  10 0 0 6.28318530717959
2  19 10 4 0 6.28318530717959
2  20 11 0 0 6.28318530717959
4 C0 10 4 11 0
0

0101000
+78 0 -78 0 *
Wi

0101100
+77 5 *
Ve
1e-07
46 -1.12667505521556e-14 8
0 0

0101101
*
Ed
 1e-07 1 1 0
1  11 0 0 6.28318530717959
2  21 12 0 0 6.28318530717959
2  22 13 0 0 6.28318530717959
0

0101000
+75 0 -75 0 *
Wi

0101100
-74 0 *
Fa
0  1e-07 10 0

0111000
+76 0 +73 0 *
Ve
1e-07
46 -1.12667505521556e-14 0
0 0

0101101
*
Ed
 1e-07 1 1 0
1  12 0 0 8
3  23 24CN 12 0 0 8
0

0101000
+71 0 -75 0 *
Ed
 1e-07 1 1 0
1  13 0 0 6.28318530717959
2  25 12 0 0 6.28318530717959
2  26 14 0 0 6.28318530717959
0

0101000
+71 0 -71 0 *
Wi

0101100
-74 0 +70 0 +69 0 -70 0 *
Fa
0  1e-07 12 0

0111000
+68 0 *
Ve
1e-07
107 -2.62074415017534e-14 27
0 0

0101101
*
Ed
 1e-07 1 1 0
1  14 0 0 6.28318530717959
2  27 16 0 0 6.28318530717959
2  28 17 0 0 6.28318530717959
0

0101000
+66 7 -66 7 *
Wi

0101100
+65 6 *
Wi

0101100
-69 4 *
Fa
0  1e-07 15 4

0111000
+64 0 +63 0 *
Ve
1e-07
107 -2.62074415017534e-14 8
0 0

0101101
*
Ed
 1e-07 1 1 0
1  15 0 0 19
3  29 30CN 16 0 0 19
0

0101000
+61 7 -66 7 *
Ed
 1e-07 1 1 0
1  16 0 0 6.28318530717959
2  31 16 0 0 6.28318530717959
2  32 18 0 0 6.28318530717959
0

0101000
+61 7 -61 7 *
Wi

0101100
-65 6 +60 6 +59 6 -60 6 *
Fa
0  1e-07 16 6

0111000
+58 0 *
Wi

0101100
+59 6 *
Fa
0  1e-07 19 0

0111000
+56 0 *
Ve
1e-05
115 -2.81668763803891e-14 0
0 0

0101101
*
Ed
 1e-05 1 1 0
1  17 0 0 35
3  33 34C0 11 0 0 35
0

0101000
-78 0 +54 0 *
Ed
 1e-07 1 1 0
1  18 0 0 6.28318530717959
2  35 20 0 0 6.28318530717959
2  36 11 0 0 6.28318530717959
4 C0 11 0 20 0
0

0101000
+54 0 -54 0 *
Wi

0101100
-77 0 -53 0 +52 0 +53 0 *
Fa
0  1e-07 11 0

0111000
+51 0 *
Wi

0101100
-52 0 *
Fa
0  1e-07 20 0

0111000
-49 0 *
Sh

0101100
+72 4 -67 4 -62 0 -57 0 +55 0 +50 0 -48 0 *
So

0100000
+47 0 *
Co

0100000
+46 0 *
Ve
1e-07
46 -1.12667505521556e-14 29
0 0

0101101
*
Ed
 1e-07 1 1 0
1  19 0 0 6.28318530717959
2  37 21 0 0 6.28318530717959
2  38 22 0 0 6.28318530717959
0

0101000
+44 0 -44 0 *
Ve
1e-07
46 -1.12667505521556e-14 0
0 0

0101101
*
Ed
 1e-07 1 1 0
1  20 0 0 29
3  39 40CN 21 0 0 29
0

0101000
-44 0 +42 0 *
Ed
 1e-07 1 1 0
1  21 0 0 6.28318530717959
2  41 21 0 0 6.28318530717959
2  42 23 0 0 6.28318530717959
0

0101000
+42 0 -42 0 *
Wi

0101100
-43 0 +41 0 +40 0 -41 0 *
Fa
0  1e-07 21 0

0111000
+39 0 *
Wi

0101100
+43 0 *
Fa
0  1e-07 22 0

0111000
+37 0 *
Wi

0101100
+40 9 *
Ve
1e-07
37 -9.06238631369041e-15 8
0 0

0101101
*
Ed
 1e-07 1 1 0
1  9 0 0 6.28318530717959
2  17 7 0 0 6.28318530717959
2  18 9 0 0 6.28318530717959
0

0101000
+34 11 -34 11 *
Wi

0101100
-33 10 *
Fa
0  1e-07 23 9

0111000
+35 0 +32 0 *
Ed
 1e-07 1 1 0
1  8 0 0 27
3  15 16CN 7 0 0 27
0

0101000
+34 11 -91 0 *
Wi

0101100
-90 10 +30 10 +33 10 -30 10 *
Fa
0  1e-07 7 10

0111000
+29 0 *
Sh

0101100
+38 9 +36 9 -31 0 -28 0 -83 10 *
So

0100000
+27 0 *
Co

0100000
+26 0 *
Ve
1e-07
143 -3.50248984556143e-14 71
0 0

0101101
*
Ed
 1e-07 1 1 0
1  22 0 0 6.28318530717959
2  43 24 0 0 6.28318530717959
2  44 25 0 0 6.28318530717959
0

0101000
+24 0 -24 0 *
Ve
1e-07
143 -3.50248984556143e-14 0
0 0

0101101
*
Ed
 1e-07 1 1 0
1  23 0 0 71
3  45 46CN 24 0 0 71
0

0101000
-24 0 +22 0 *
Ed
 1e-07 1 1 0
1  24 0 0 6.28318530717959
2  47 24 0 0 6.28318530717959
2  48 26 0 0 6.28318530717959
0

0101000
+22 0 -22 0 *
Wi

0101100
-23 0 +21 0 +20 0 -21 0 *
Fa
0  1e-07 24 0

0111000
+19 0 *
Wi

0101100
+23 0 *
Fa
0  1e-07 25 0

0111000
+17 0 *
Wi

0101100
-20 0 *
Fa
0  1e-07 26 0

0111000
-15 0 *
Sh

0101100
+18 13 +16 13 -14 13 *
Wi

0101100
+77 0 *
Ve
1.00000041431405e-07
46 -1.12667505521556e-14 35
0 0

0101101
*
Ed
 1.00000041431405e-07 1 1 0
1  11 0 0 6.28318530717959
2  21 12 0 0 6.28318530717959
2  22 13 0 0 6.28318530717959
2  49 21 14 0 6.28318530717959
0

0101000
+11 5 -11 5 *
Wi

0101100
-10 4 *
Fa
0  1e-07 10 4

0111000
+12 0 +9 0 *
Ed
 1e-07 1 1 0
1  20 0 27 29
3  39 40CN 21 0 27 29
0

0101000
+11 15 -44 0 *
Wi

0101100
+7 9 +10 4 -7 9 -43 9 *
Fa
0  1e-07 21 9

0111000
+6 0 *
Sh

0101100
-8 0 -50 0 -5 0 +48 0 -36 9 *
So

0100000
+13 0 +4 0 *
Co

0100000
+3 0 *
Co

1100000
+92 1 +79 2 +45 3 +25 8 +2 12 *

+1 0 